<?xml version="1.0" encoding="utf-8"?>
<!-- Generator: Adobe Illustrator 16.0.0, SVG Export Plug-In . SVG Version: 6.00 Build 0)  -->
<!DOCTYPE svg PUBLIC "-//W3C//DTD SVG 1.1//EN" "http://www.w3.org/Graphics/SVG/1.1/DTD/svg11.dtd">
<svg version="1.1" id="Layer_1" xmlns="http://www.w3.org/2000/svg" xmlns:xlink="http://www.w3.org/1999/xlink" x="0px" y="0px"
	 width="490px" height="130px" viewBox="0 0 490 130" enable-background="new 0 0 490 130" xml:space="preserve">
<g>
	<g>
		<path fill="#47BACC" d="M123.651,124.104H22.337c-3.592,0-6.504-2.912-6.504-6.502V52.911h114.32v64.691
			C130.153,121.192,127.243,124.104,123.651,124.104z"/>
		<g>
			<linearGradient id="SVGID_1_" gradientUnits="userSpaceOnUse" x1="105.3076" y1="-6.54" x2="49.1742" y2="96.1428">
				<stop  offset="0" style="stop-color:#E6E6E6"/>
				<stop  offset="0.5272" style="stop-color:#E5E5E6"/>
				<stop  offset="0.5996" style="stop-color:#C4C4C5"/>
				<stop  offset="0.7359" style="stop-color:#8C8C8C"/>
				<stop  offset="0.8529" style="stop-color:#636363"/>
				<stop  offset="0.9447" style="stop-color:#494949"/>
				<stop  offset="1" style="stop-color:#404040"/>
			</linearGradient>
			<rect x="13.781" y="46.409" fill="url(#SVGID_1_)" width="118.427" height="12.322"/>
			<path fill="#47BACC" d="M75.144,58.73h11.627l6.658-12.321H81.804L75.144,58.73z M29.32,58.73h11.627l6.658-12.321H35.98
				L29.32,58.73z M52.232,58.73h11.627l6.658-12.321H58.892L52.232,58.73z M98.056,58.73h11.627l6.658-12.321h-11.627L98.056,58.73z
				 M127.628,46.409l-6.66,12.321h11.24V46.409H127.628z M13.781,58.73h4.254l6.658-12.321H13.781V58.73z"/>
		</g>
		<g>
			
				<linearGradient id="SVGID_2_" gradientUnits="userSpaceOnUse" x1="-101.6226" y1="-1744.52" x2="-157.7541" y2="-1641.8405" gradientTransform="matrix(0.9705 -0.2411 -0.2411 -0.9705 -206.6173 -1641.8306)">
				<stop  offset="0" style="stop-color:#E6E6E6"/>
				<stop  offset="0.5272" style="stop-color:#E5E5E6"/>
				<stop  offset="0.5996" style="stop-color:#C4C4C5"/>
				<stop  offset="0.7359" style="stop-color:#8C8C8C"/>
				<stop  offset="0.8529" style="stop-color:#636363"/>
				<stop  offset="0.9447" style="stop-color:#494949"/>
				<stop  offset="1" style="stop-color:#404040"/>
			</linearGradient>
			<polygon fill="url(#SVGID_2_)" points="125.731,5.896 10.8,34.45 13.771,46.409 128.704,17.854 			"/>
			<path fill="#47BACC" d="M79.786,30.007l11.283-2.803l-9.434-10.354l-11.283,2.804L79.786,30.007z M35.314,41.056l11.283-2.803
				L37.164,27.9L25.88,30.704L35.314,41.056z M57.55,35.532l11.283-2.803L59.4,22.376l-11.283,2.803L57.55,35.532z M102.022,24.483
				l11.283-2.804l-9.434-10.353L92.589,14.13L102.022,24.483z M128.704,17.854l-2.973-11.959l-10.906,2.71l9.434,10.353
				L128.704,17.854z M13.771,46.409l10.59-2.631l-9.434-10.354L10.8,34.45L13.771,46.409z"/>
		</g>
		<g>
			<path fill="#47BACC" d="M117.905,110.259h-92.56V93.454h92.56V110.259z M25.949,109.655h91.353V94.06H25.949V109.655z"/>
		</g>
		<g>
			<rect x="25.88" y="70.864" fill="#47BACC" width="91.724" height="0.604"/>
		</g>
		<g>
			<rect x="72.233" y="71.167" fill="#47BACC" width="0.604" height="22.59"/>
		</g>
		<linearGradient id="SVGID_3_" gradientUnits="userSpaceOnUse" x1="18.2861" y1="35.5879" x2="7.2634" y2="54.3176">
			<stop  offset="0" style="stop-color:#E6E6E6"/>
			<stop  offset="0.5272" style="stop-color:#E5E5E6"/>
			<stop  offset="0.5996" style="stop-color:#C4C4C5"/>
			<stop  offset="0.7359" style="stop-color:#8C8C8C"/>
			<stop  offset="0.8529" style="stop-color:#636363"/>
			<stop  offset="0.9447" style="stop-color:#494949"/>
			<stop  offset="1" style="stop-color:#404040"/>
		</linearGradient>
		<circle fill="url(#SVGID_3_)" cx="15.77" cy="39.864" r="1.667"/>
		<linearGradient id="SVGID_4_" gradientUnits="userSpaceOnUse" x1="19.7705" y1="48.3384" x2="8.747" y2="67.0695">
			<stop  offset="0" style="stop-color:#E6E6E6"/>
			<stop  offset="0.5272" style="stop-color:#E5E5E6"/>
			<stop  offset="0.5996" style="stop-color:#C4C4C5"/>
			<stop  offset="0.7359" style="stop-color:#8C8C8C"/>
			<stop  offset="0.8529" style="stop-color:#636363"/>
			<stop  offset="0.9447" style="stop-color:#494949"/>
			<stop  offset="1" style="stop-color:#404040"/>
		</linearGradient>
		<circle fill="url(#SVGID_4_)" cx="17.253" cy="52.613" r="1.668"/>
	</g>
	<g>
		<path fill="#E2008C" d="M238.643,105.072l-0.889,10.186c-5.605,1.686-11.713,2.529-18.32,2.529
			c-15.678,0-27.458-4.295-35.342-12.886c-7.885-8.59-11.826-19.083-11.826-31.479c0-12.988,4.397-24.188,13.193-33.599
			c8.795-9.41,20.621-14.116,35.479-14.116c4.102,0,8.431,0.615,12.988,1.846l-1.914,10.869c-5.241-1.641-9.912-2.461-14.014-2.461
			c-11.029,0-19.392,3.418-25.088,10.254c-5.697,6.836-8.545,15.199-8.545,25.088c0,10.072,3.281,18.708,9.844,25.908
			c6.563,7.201,15.631,10.801,27.207,10.801C225.836,108.012,231.578,107.032,238.643,105.072z"/>
		<path fill="#47BACC" d="M307.891,26.938l-0.547,10.186c-12.123-0.547-25.863-0.82-41.221-0.82
			c0.547,7.565,0.82,18.002,0.82,31.309c10.709,0,21.123-0.182,31.24-0.547v9.912c-9.753-0.364-20.166-0.547-31.24-0.547
			c0,17.819,0.25,30.99,0.752,39.512h-12.441c0.638-14.127,0.957-29.713,0.957-46.758c0-16.041-0.319-30.123-0.957-42.246H307.891z"
			/>
		<path fill="#47BACC" d="M332.295,115.941h-12.373c0.638-9.114,0.957-19.527,0.957-31.24c0-13.17-0.798-24.222-2.393-33.154
			l13.672-1.846c-0.547,9.525-0.82,21.191-0.82,35C331.338,95.639,331.656,106.053,332.295,115.941z M335.166,30.492
			c0,2.324-0.752,4.341-2.256,6.05s-3.623,2.563-6.357,2.563c-2.324,0-4.136-0.74-5.435-2.222c-1.299-1.48-1.948-3.27-1.948-5.366
			c0-2.278,0.774-4.261,2.324-5.947c1.549-1.686,3.691-2.529,6.426-2.529c2.232,0,3.999,0.741,5.298,2.222
			C334.517,26.744,335.166,28.487,335.166,30.492z"/>
		<path fill="#47BACC" d="M363.604,115.941h-13.125c0.82-15.039,1.23-32.037,1.23-50.996c0-18.411-0.661-33.473-1.982-45.186
			l13.877-0.684c-0.866,12.396-1.299,27.686-1.299,45.869C362.305,83.676,362.737,100.675,363.604,115.941z"/>
		<path fill="#47BACC" d="M468.33,76.361c0-7.291-1.265-12.11-3.794-14.458c-2.529-2.347-6.688-3.521-12.476-3.521
			c-4.877,0-9.912,2.393-15.107,7.178c-0.183,5.561-0.273,11.006-0.273,16.338c0,7.611,0.137,18.959,0.41,34.043h-12.441
			c1.002-12.988,1.504-26.182,1.504-39.58c0-7.291-1.265-12.11-3.794-14.458c-2.529-2.347-6.574-3.521-12.134-3.521
			c-5.697,0-11.029,2.393-15.996,7.178c0,14.447,0.091,31.24,0.273,50.381h-12.441c0.865-15.494,1.299-26.705,1.299-33.633
			c0-10.527-1.025-20.872-3.076-31.035l12.031-1.709l1.23,8.271h0.684c5.924-6.061,12.51-9.092,19.756-9.092
			c10.801,0,17.75,3.031,20.85,9.092h0.752c6.881-6.061,13.672-9.092,20.371-9.092c7.656,0,13.443,1.687,17.363,5.059
			c3.919,3.373,5.879,9.32,5.879,17.842c0,0.866-0.046,2.575-0.137,5.127c-0.092,2.553-0.137,4.262-0.137,5.127
			c0,7.611,0.091,18.959,0.273,34.043h-12.441C467.806,104.002,468.33,90.809,468.33,76.361z"/>
	</g>
</g>
</svg>
